<svg width="16" height="13" viewBox="0 0 16 13" fill="none" xmlns="http://www.w3.org/2000/svg">
<path fill-rule="evenodd" clip-rule="evenodd" d="M1.89198 5.20273H14.9409C15.5258 5.20273 16 5.67692 16 6.26182C16 6.84675 15.5258 7.32091 14.9409 7.32091H1.05906C0.474157 7.32091 0 6.84672 0 6.26182C0 5.71157 0.419675 5.25943 0.956392 5.20778V2.05481C0.956392 0.921775 1.8782 0 3.01123 0H4.03695C4.47774 0 4.89822 0.189176 5.19062 0.519034L5.39396 0.74841C5.68253 0.298453 6.18672 0 6.76095 0C7.6574 0 8.38414 0.726735 8.38414 1.62319V2.20968H8.696C8.95438 2.20968 9.16383 2.41913 9.1638 2.67747C9.1638 2.93585 8.95438 3.14527 8.696 3.14527H4.8259C4.69669 3.14527 4.57975 3.09294 4.49511 3.00827C4.41047 2.92359 4.3581 2.80665 4.3581 2.67747C4.3581 2.41909 4.56752 2.20968 4.8259 2.20968H5.13773V1.86859C5.13622 1.86699 5.13466 1.86545 5.1331 1.86392C5.13101 1.86187 5.12893 1.85982 5.12697 1.85761L4.49049 1.13961C4.37557 1.00994 4.21025 0.935559 4.03698 0.935559H3.01123C2.39408 0.935559 1.89198 1.43763 1.89198 2.05477V5.20273ZM1.05029 8.25684L1.05924 8.25705H14.9411L14.9501 8.25684V8.61114C14.9501 10.0299 13.8 11.18 12.3812 11.18H11.7359C11.7382 11.1988 11.7398 11.2178 11.7398 11.2372V12.0335C11.7398 12.2919 11.5303 12.5013 11.272 12.5013C11.0136 12.5013 10.8042 12.2919 10.8042 12.0335V11.2372C10.8042 11.2178 10.8057 11.1988 10.808 11.18H5.19237C5.19468 11.1988 5.19621 11.2178 5.19621 11.2372V12.0335C5.19621 12.2919 4.98676 12.5013 4.72841 12.5013C4.47006 12.5013 4.26062 12.2919 4.26062 12.0335V11.2372C4.26062 11.2178 4.26214 11.1988 4.26445 11.18H3.61917C2.20041 11.18 1.05029 10.0299 1.05029 8.61114V8.25684Z" fill="#111133" fill-opacity="0.25"/>
</svg>
