<svg width="18" height="19" viewBox="0 0 18 19" fill="none" xmlns="http://www.w3.org/2000/svg">
<path d="M2.63488 1.01478C2.04909 0.428993 1.09934 0.428993 0.513559 1.01478C-0.0722278 1.60057 -0.0722278 2.55031 0.513559 3.1361L6.8777 9.50024L0.513785 15.8642C-0.0720014 16.4499 -0.0720012 17.3997 0.513785 17.9855C1.09957 18.5713 2.04932 18.5713 2.63511 17.9855L8.99902 11.6216L15.3628 17.9853C15.9486 18.5711 16.8983 18.5711 17.4841 17.9853C18.0699 17.3996 18.0699 16.4498 17.4841 15.864L11.1203 9.50024L17.4843 3.13624C18.0701 2.55045 18.0701 1.6007 17.4843 1.01492C16.8986 0.42913 15.9488 0.42913 15.363 1.01492L8.99902 7.37892L2.63488 1.01478Z" fill="#27263D" fill-opacity="0.5"/>
</svg>
