<svg width="23" height="23" viewBox="0 0 23 23" fill="none" xmlns="http://www.w3.org/2000/svg">
<path d="M20.9027 22.1427L13.2827 14.5213C9.89295 16.9313 5.22197 16.3418 2.53722 13.1652C-0.147533 9.98867 0.0496006 5.28477 2.99072 2.34399C5.93107 -0.598086 10.6354 -0.796073 13.8126 1.88854C16.9897 4.57315 17.5795 9.24458 15.1694 12.6347L22.7894 20.256L20.9041 22.1413L20.9027 22.1427ZM8.64672 2.66663C6.11832 2.66607 3.93698 4.44089 3.42335 6.91657C2.90973 9.39225 4.205 11.8883 6.52496 12.8936C8.84491 13.8989 11.5519 13.1371 13.007 11.0694C14.4622 9.00168 14.2655 6.19641 12.5361 4.35199L13.3427 5.15199L12.4334 4.24532L12.4174 4.22932C11.4198 3.22555 10.0619 2.66282 8.64672 2.66663Z" fill="#FF3344"/>
</svg>
